<svg id="logo-hvidt" data-name="Layer 1" xmlns="http://www.w3.org/2000/svg" viewBox="0 0 155.67 71.67">
  <defs>
    <style>.cls-1{fill:#fff;}.cls-2{fill:none;}.cls-3{fill:#3959a1;}</style>
  </defs>
  <title>Artboard 1</title>
  <path class="cls-1" d="M30.16,63.09h-.9l-3-8.11h1l2.36,7,0,.29,0-.29,2.36-7h1Z"/>
  <path class="cls-1" d="M44,63.09V55h.91v8.11Z"/>
  <path class="cls-1" d="M62.52,63.09h-.86l-4.33-6.63.06.52v6.12h-.91V55h.86l4.33,6.63-.06-.52V55h.91Z"/>
  <path class="cls-1" d="M76.22,55c2.29,0,3.84,1.48,3.84,4.05s-1.55,4.05-3.84,4.05H74V55Zm0,7.34c1.82,0,2.9-1.22,2.9-3.29s-1.08-3.29-2.9-3.29H74.94v6.57Z"/>
  <path class="cls-1" d="M96.87,60c0,2.09-1,3.24-3,3.24S91,62.1,91,60V55h.91v5.16c0,1.5.72,2.33,2,2.33s2-.83,2-2.33V55h.91Z"/>
  <path class="cls-1" d="M108.25,63.09V55h4.68v.77h-3.77v2.9h3.41v.73h-3.41v2.94H113v.77Z"/>
  <path class="cls-1" d="M126.93,60h-1.75v3.14h-.91V55h2.34c1.79,0,2.84.92,2.84,2.48a2.23,2.23,0,0,1-1.76,2.38l.24.24,1.85,3h-1.08Zm-.22-.72a1.63,1.63,0,0,0,1.81-1.76,1.59,1.59,0,0,0-1.75-1.71h-1.61v3.48Z"/>
  <polygon class="cls-1" points="58.66 1.93 45.2 1.92 45.17 46.08 70.97 46.1 70.98 34.34 58.63 34.33 58.66 1.93"/>
  <path class="cls-1" d="M23.85,1.9c-8.91,0-17.08,4.66-20.31,13.42A24.92,24.92,0,0,0,2.07,24,24.92,24.92,0,0,0,3.52,32.6c3.21,8.77,11.37,13.45,20.29,13.46H39.16l0-25.93H23.24v7.71h7.64v6.47H23.82a9.08,9.08,0,0,1-2.65-.37c-3.32-1-5.18-4.17-5.18-10,0-6.36,2.26-9.49,6.23-10.12a10.19,10.19,0,0,1,1.62-.13H39.19V1.92H23.85Z"/>
  <polygon class="cls-1" points="74.02 42.4 72.93 46.1 72.94 46.1 74.03 42.4 74.02 42.4"/>
  <path class="cls-1" d="M95.28,28.22l-2.2-10.38h0l2.2,10.36a2.21,2.21,0,0,1-3.87,1.87,2.21,2.21,0,0,0,3.88-1.86Z"/>
  <path class="cls-1" d="M91,28.23l2.11-10.38v0L91,28.23a2.2,2.2,0,0,0,.44,1.86A2.2,2.2,0,0,1,91,28.23Z"/>
  <path class="cls-1" d="M111.69,40.89,100.27,2H86l-13,44.15H86.85L88,40.89ZM91,28.23l2.11-10.39v0h0l2.2,10.38a2.21,2.21,0,1,1-4.32,0Z"/>
  <path class="cls-2" d="M132.25,34.39h-2l0-20.57h0l0,20.58h2c3.73,0,6.28-1.76,7.32-5.68C138.52,32.63,136,34.39,132.25,34.39Z"/>
  <path class="cls-1" d="M132.28,2H116.93l0,38.9H147c4.26-3.73,7-9.38,7-16.79C154,9.79,143.78,2,132.28,2Zm0,32.4h-2l0-20.58h2c5,0,7.84,3.08,7.83,10.26a18.17,18.17,0,0,1-.53,4.64C138.53,32.64,136,34.4,132.25,34.4Z"/>
  <path class="cls-1" d="M132.27,13.81h0c5,0,7.84,3.08,7.83,10.26a18.19,18.19,0,0,1-.53,4.63,18.17,18.17,0,0,0,.53-4.64C140.11,16.89,137.23,13.82,132.27,13.81Z"/>
  <path class="cls-3" d="M93.07,17.84,91,28.23a2.21,2.21,0,1,0,4.31,0Z"/>
  <path class="cls-1" d="M108.25,66.36a2.36,2.36,0,1,0,4.71,0V64.58h-4.71Z"/>
  <path class="cls-1" d="M89.29,42.4l-.84,3.72h15.83c3.14.13,3.82,2.21,4,3.07l0,4.3h4.7l0-4.24c.13-.86.8-3.11,4.27-3.11h15l1,0A22.52,22.52,0,0,0,145,42.4Z"/>
</svg>